<svg xmlns="http://www.w3.org/2000/svg" width="128" height="128" fill="none"><defs><clipPath id="a" class="frame-clip frame-clip-def"><rect width="128" height="128" rx="0" ry="0"/></clipPath></defs><g clip-path="url(#a)"><g class="fills"><rect width="128" height="128" class="frame-background" rx="0" ry="0"/></g><g class="frame-children"><path fill="#40f7b4" d="M64.25 113c-12.83-10.96-22.412-21.14-28.747-30.54C29.168 73.06 26 64.36 26 56.36c0-12 3.845-21.56 11.535-28.68C45.225 20.56 54.13 17 64.25 17c10.12 0 19.025 3.56 26.715 10.68 7.69 7.12 11.535 16.68 11.535 28.68 0 8-3.168 16.7-9.503 26.1-6.335 9.4-15.917 19.58-28.747 30.54Z" class="fills"/><path fill="#051521" d="M54.679 90V52.309c-4.453-1.14-8.012-3.527-10.679-7.161-2.667-3.634-4-7.683-4-12.148h5.872c0 3.942 1.308 7.303 3.926 10.082 2.618 2.779 5.957 4.168 10.019 4.168h7.339c1.468 0 2.838.261 4.11.784a10.82 10.82 0 0 1 3.45 2.28L88 63.21l-4.11 3.99-11.596-11.258V90h-5.872V72.9H60.55V90h-5.871Zm8.807-45.6c-1.614 0-2.997-.558-4.147-1.674-1.149-1.117-1.724-2.459-1.724-4.026 0-1.568.575-2.909 1.724-4.026C60.489 33.558 61.872 33 63.486 33c1.615 0 2.997.558 4.147 1.674 1.15 1.117 1.725 2.458 1.725 4.026 0 1.567-.575 2.909-1.725 4.026-1.15 1.116-2.532 1.674-4.147 1.674Z" class="fills"/></g></g></svg>
