<svg width="128" xmlns="http://www.w3.org/2000/svg" height="128" fill="none"><defs><clipPath id="a" class="frame-clip frame-clip-def"><rect rx="0" ry="0" width="128" height="128"/></clipPath></defs><g clip-path="url(#a)"><g class="fills"><rect width="128" height="128" class="frame-background" style="fill: rgb(64, 247, 180); fill-opacity: 1;" ry="0" rx="0"/></g><g class="frame-children"><path d="M64.25 113c-12.83-10.96-22.412-21.14-28.747-30.54C29.168 73.06 26 64.36 26 56.36c0-12 3.845-21.56 11.535-28.68C45.225 20.56 54.13 17 64.25 17c10.12 0 19.025 3.56 26.715 10.68 7.69 7.12 11.535 16.68 11.535 28.68 0 8-3.168 16.7-9.503 26.1-6.335 9.4-15.917 19.58-28.747 30.54Zm-.764-68.6c1.615 0 2.997-.558 4.147-1.674 1.15-1.117 1.725-2.459 1.725-4.026 0-1.568-.575-2.909-1.725-4.026C66.483 33.558 65.101 33 63.486 33c-1.614 0-2.997.558-4.147 1.674-1.149 1.117-1.724 2.458-1.724 4.026 0 1.567.575 2.909 1.724 4.026 1.15 1.116 2.533 1.674 4.147 1.674ZM54.679 90h5.871V72.9h5.872V90h5.872V55.942L83.89 67.2 88 63.21 74.716 50.314a10.82 10.82 0 0 0-3.45-2.28c-1.272-.523-2.642-.784-4.11-.784h-7.339c-4.062 0-7.401-1.389-10.019-4.168-2.618-2.779-3.926-6.14-3.926-10.082H40c0 4.465 1.333 8.514 4 12.148 2.667 3.634 6.226 6.021 10.679 7.161V90Z" style="fill: rgb(5, 21, 33); fill-opacity: 1;" class="fills"/></g></g></svg>