<svg width="108" xmlns="http://www.w3.org/2000/svg" height="108" fill="none"><defs><clipPath id="a" class="frame-clip frame-clip-def"><rect rx="0" ry="0" width="108" height="108"/></clipPath></defs><g clip-path="url(#a)"><g class="fills"><rect rx="0" ry="0" width="108" height="108" class="frame-background"/></g><g class="frame-children"><path d="M54 87c-8.721-7.535-15.234-14.534-19.541-20.996C30.153 59.541 28 53.56 28 48.06c0-8.25 2.614-14.823 7.841-19.718S47.121 21 54 21s12.932 2.447 18.159 7.342C77.386 33.237 80 39.81 80 48.06c0 5.5-2.153 11.481-6.459 17.944C69.234 72.466 62.721 79.465 54 87Zm-.519-47.163c1.097 0 2.037-.383 2.819-1.151.781-.767 1.172-1.69 1.172-2.767 0-1.078-.391-2-1.172-2.768A3.883 3.883 0 0 0 53.481 32a3.881 3.881 0 0 0-2.819 1.151c-.781.768-1.172 1.69-1.172 2.768 0 1.077.391 2 1.172 2.767.782.768 1.721 1.151 2.819 1.151Zm-5.987 31.351h3.991V59.431h3.991v11.757h3.992V47.773l7.882 7.74 2.794-2.744-9.03-8.866a7.35 7.35 0 0 0-2.345-1.567 7.197 7.197 0 0 0-2.794-.539h-4.989c-2.76 0-5.03-.955-6.809-2.866-1.78-1.91-2.67-4.221-2.67-6.931h-3.991c0 3.07.907 5.854 2.719 8.352 1.813 2.498 4.233 4.139 7.259 4.923v25.913Z" style="fill: rgb(5, 21, 33); fill-opacity: 1;" class="fills"/></g></g></svg>