<svg width="108" xmlns="http://www.w3.org/2000/svg" height="108" fill="none"><defs><clipPath id="a" class="frame-clip frame-clip-def"><rect rx="0" ry="0" width="108" height="108"/></clipPath></defs><g clip-path="url(#a)"><g class="fills"><rect rx="0" ry="0" width="108" height="108" class="frame-background"/></g><g class="frame-children"><path d="M54 87c-8.721-7.535-15.234-14.534-19.541-20.996C30.153 59.541 28 53.56 28 48.06c0-8.25 2.614-14.823 7.841-19.718S47.121 21 54 21s12.932 2.447 18.159 7.342C77.386 33.237 80 39.81 80 48.06c0 5.5-2.153 11.481-6.459 17.944C69.234 72.466 62.721 79.465 54 87Z" style="fill: rgb(5, 21, 33); fill-opacity: 1;" class="fills"/><path d="M47.494 71.188V45.275c-3.026-.784-5.446-2.425-7.259-4.923-1.812-2.498-2.719-5.282-2.719-8.352h3.991c0 2.71.89 5.021 2.67 6.931 1.779 1.911 4.049 2.866 6.809 2.866h4.989c.998 0 1.929.179 2.794.539a7.35 7.35 0 0 1 2.345 1.567l9.03 8.866-2.794 2.744-7.882-7.74v23.415h-3.992V59.431h-3.991v11.757h-3.991Zm5.987-31.351c-1.098 0-2.037-.383-2.819-1.151-.781-.767-1.172-1.69-1.172-2.767 0-1.078.391-2 1.172-2.768A3.881 3.881 0 0 1 53.481 32c1.097 0 2.037.384 2.819 1.151.781.768 1.172 1.69 1.172 2.768 0 1.077-.391 2-1.172 2.767-.782.768-1.722 1.151-2.819 1.151Z" style="fill: rgb(64, 247, 180); fill-opacity: 1;" class="fills"/></g></g></svg>