<svg xmlns="http://www.w3.org/2000/svg" fill="none" viewBox="0 0 64 80"><defs><clipPath id="a" class="frame-clip frame-clip-def"><rect width="64" height="80" rx="0" ry="0"/></clipPath></defs><g clip-path="url(#a)"><g class="fills"><rect width="64" height="80" class="frame-background" rx="0" ry="0"/></g><g class="frame-children"><path fill="#111827" d="M32 80C21.27 70.87 13.25 62.38 7.95 54.55 2.65 46.72 0 39.47 0 32.8c0-10 3.22-17.97 9.65-23.9S23.53 0 32 0s15.92 2.97 22.35 8.9C60.78 14.83 64 22.8 64 32.8c0 6.67-2.65 13.92-7.95 21.75C50.75 62.38 42.73 70.87 32 80Z" class="fills"/><path fill="#00f8b9" d="M24.23 60V28.26a15.45 15.45 0 0 1-8.9-6.03A17 17 0 0 1 12 12h4.9a12 12 0 0 0 3.27 8.49A10.91 10.91 0 0 0 28.5 24h6.12c1.22 0 2.36.22 3.42.66a9.03 9.03 0 0 1 2.88 1.92L52 37.44l-3.42 3.36-9.67-9.48V60h-4.9V45.6h-4.88V60h-4.9Zm7.34-38.4c-1.34 0-2.5-.47-3.45-1.41a4.58 4.58 0 0 1-1.44-3.39c0-1.32.48-2.45 1.44-3.39A4.76 4.76 0 0 1 31.57 12c1.35 0 2.5.47 3.46 1.41a4.58 4.58 0 0 1 1.43 3.39c0 1.32-.47 2.45-1.43 3.39a4.76 4.76 0 0 1-3.46 1.41Z" class="fills"/></g></g></svg>
