<svg width="64" xmlns="http://www.w3.org/2000/svg" height="80" fill="none"><defs><clipPath id="a" class="frame-clip frame-clip-def"><rect rx="0" ry="0" width="64" height="80"/></clipPath></defs><g clip-path="url(#a)"><g class="fills"><rect rx="0" ry="0" width="64" height="80" class="frame-background"/></g><g class="frame-children"><path d="M32 80C21.267 70.867 13.25 62.383 7.95 54.55 2.65 46.717 0 39.467 0 32.8c0-10 3.217-17.967 9.65-23.9S23.533 0 32 0c8.467 0 15.917 2.967 22.35 8.9C60.783 14.833 64 22.8 64 32.8c0 6.667-2.65 13.917-7.95 21.75C50.75 62.383 42.733 70.867 32 80Z" style="fill: rgb(5, 21, 33); fill-opacity: 1;" class="fills"/><path d="M24.232 63V31.26c-3.71-.96-6.676-2.97-8.899-6.03C13.111 22.17 12 18.76 12 15h4.893c0 3.32 1.091 6.15 3.272 8.49 2.182 2.34 4.964 3.51 8.349 3.51h6.116c1.223 0 2.365.22 3.425.66a9.027 9.027 0 0 1 2.875 1.92L52 40.44l-3.425 3.36-9.664-9.48V63h-4.893V48.6h-4.893V63h-4.893Zm7.34-38.4c-1.346 0-2.498-.47-3.456-1.41-.958-.94-1.437-2.07-1.437-3.39 0-1.32.479-2.45 1.437-3.39.958-.94 2.11-1.41 3.456-1.41 1.345 0 2.497.47 3.456 1.41.958.94 1.437 2.07 1.437 3.39 0 1.32-.479 2.45-1.437 3.39-.959.94-2.111 1.41-3.456 1.41Z" style="fill: rgb(64, 247, 180); fill-opacity: 1;" class="fills"/></g></g></svg>